<mxfile host="Electron" agent="Mozilla/5.0 (Windows NT 10.0; Win64; x64) AppleWebKit/537.36 (KHTML, like Gecko) draw.io/26.2.15 Chrome/134.0.6998.205 Electron/35.2.1 Safari/537.36" version="26.2.15">
  <diagram name="Страница — 1" id="s6A1hoXwagS76ZChFd03">
    <mxGraphModel dx="1371" dy="943" grid="1" gridSize="10" guides="1" tooltips="1" connect="1" arrows="1" fold="1" page="1" pageScale="1" pageWidth="827" pageHeight="1169" math="0" shadow="0">
      <root>
        <mxCell id="0" />
        <mxCell id="1" parent="0" />
        <mxCell id="sC8eI6ADNs8tTRoIK7ok-58" value="Операциониист-контроллер" style="swimlane;horizontal=0;whiteSpace=wrap;html=1;swimlaneFillColor=default;" parent="1" vertex="1">
          <mxGeometry x="20" y="330" width="1350" height="240" as="geometry" />
        </mxCell>
        <mxCell id="sC8eI6ADNs8tTRoIK7ok-3" value="&lt;font style=&quot;font-size: 10px;&quot;&gt;Перевод денежных средств с депозитного счета на счет до востребования&lt;/font&gt;" style="points=[[0.25,0,0],[0.5,0,0],[0.75,0,0],[1,0.25,0],[1,0.5,0],[1,0.75,0],[0.75,1,0],[0.5,1,0],[0.25,1,0],[0,0.75,0],[0,0.5,0],[0,0.25,0]];shape=mxgraph.bpmn.task;whiteSpace=wrap;rectStyle=rounded;size=10;html=1;container=0;expand=0;collapsible=0;taskMarker=user;" parent="sC8eI6ADNs8tTRoIK7ok-58" vertex="1">
          <mxGeometry x="250" y="83" width="120" height="80" as="geometry" />
        </mxCell>
        <mxCell id="sC8eI6ADNs8tTRoIK7ok-4" value="Закрытие депозитного счета клиента" style="points=[[0.25,0,0],[0.5,0,0],[0.75,0,0],[1,0.25,0],[1,0.5,0],[1,0.75,0],[0.75,1,0],[0.5,1,0],[0.25,1,0],[0,0.75,0],[0,0.5,0],[0,0.25,0]];shape=mxgraph.bpmn.task;whiteSpace=wrap;rectStyle=rounded;size=10;html=1;container=1;expand=0;collapsible=0;taskMarker=user;" parent="sC8eI6ADNs8tTRoIK7ok-58" vertex="1">
          <mxGeometry x="410" y="83" width="120" height="80" as="geometry" />
        </mxCell>
        <mxCell id="sC8eI6ADNs8tTRoIK7ok-5" value="2" style="text;html=1;align=center;verticalAlign=middle;resizable=0;points=[];autosize=1;strokeColor=none;fillColor=none;" parent="sC8eI6ADNs8tTRoIK7ok-4" vertex="1">
          <mxGeometry x="90" y="60" width="30" height="30" as="geometry" />
        </mxCell>
        <mxCell id="sC8eI6ADNs8tTRoIK7ok-6" value="" style="points=[[0.145,0.145,0],[0.5,0,0],[0.855,0.145,0],[1,0.5,0],[0.855,0.855,0],[0.5,1,0],[0.145,0.855,0],[0,0.5,0]];shape=mxgraph.bpmn.event;html=1;verticalLabelPosition=bottom;labelBackgroundColor=#ffffff;verticalAlign=top;align=center;perimeter=ellipsePerimeter;outlineConnect=0;aspect=fixed;outline=standard;symbol=timer;" parent="sC8eI6ADNs8tTRoIK7ok-4" vertex="1">
          <mxGeometry x="100" y="-10" width="25" height="25" as="geometry" />
        </mxCell>
        <mxCell id="sC8eI6ADNs8tTRoIK7ok-7" style="edgeStyle=orthogonalEdgeStyle;rounded=0;orthogonalLoop=1;jettySize=auto;html=1;entryX=0;entryY=0.5;entryDx=0;entryDy=0;entryPerimeter=0;" parent="sC8eI6ADNs8tTRoIK7ok-58" source="sC8eI6ADNs8tTRoIK7ok-3" target="sC8eI6ADNs8tTRoIK7ok-4" edge="1">
          <mxGeometry relative="1" as="geometry" />
        </mxCell>
        <mxCell id="sC8eI6ADNs8tTRoIK7ok-8" value="Изменение статуса и содержания проводки" style="points=[[0.25,0,0],[0.5,0,0],[0.75,0,0],[1,0.25,0],[1,0.5,0],[1,0.75,0],[0.75,1,0],[0.5,1,0],[0.25,1,0],[0,0.75,0],[0,0.5,0],[0,0.25,0]];shape=mxgraph.bpmn.task;whiteSpace=wrap;rectStyle=rounded;size=10;html=1;container=1;expand=0;collapsible=0;taskMarker=service;" parent="sC8eI6ADNs8tTRoIK7ok-58" vertex="1">
          <mxGeometry x="560" y="83" width="120" height="80" as="geometry" />
        </mxCell>
        <mxCell id="sC8eI6ADNs8tTRoIK7ok-9" value="3" style="text;html=1;align=center;verticalAlign=middle;resizable=0;points=[];autosize=1;strokeColor=none;fillColor=none;" parent="sC8eI6ADNs8tTRoIK7ok-8" vertex="1">
          <mxGeometry x="90" y="60" width="30" height="30" as="geometry" />
        </mxCell>
        <mxCell id="sC8eI6ADNs8tTRoIK7ok-10" style="edgeStyle=orthogonalEdgeStyle;rounded=0;orthogonalLoop=1;jettySize=auto;html=1;entryX=0;entryY=0.5;entryDx=0;entryDy=0;entryPerimeter=0;" parent="sC8eI6ADNs8tTRoIK7ok-58" source="sC8eI6ADNs8tTRoIK7ok-4" target="sC8eI6ADNs8tTRoIK7ok-8" edge="1">
          <mxGeometry relative="1" as="geometry" />
        </mxCell>
        <mxCell id="sC8eI6ADNs8tTRoIK7ok-15" value="1" style="text;html=1;align=center;verticalAlign=middle;resizable=0;points=[];autosize=1;strokeColor=none;fillColor=none;" parent="sC8eI6ADNs8tTRoIK7ok-58" vertex="1">
          <mxGeometry x="345" y="143" width="30" height="30" as="geometry" />
        </mxCell>
        <mxCell id="sC8eI6ADNs8tTRoIK7ok-16" value="" style="points=[[0.145,0.145,0],[0.5,0,0],[0.855,0.145,0],[1,0.5,0],[0.855,0.855,0],[0.5,1,0],[0.145,0.855,0],[0,0.5,0]];shape=mxgraph.bpmn.event;html=1;verticalLabelPosition=bottom;labelBackgroundColor=#ffffff;verticalAlign=top;align=center;perimeter=ellipsePerimeter;outlineConnect=0;aspect=fixed;outline=standard;symbol=timer;" parent="sC8eI6ADNs8tTRoIK7ok-58" vertex="1">
          <mxGeometry x="355" y="75.5" width="25" height="25" as="geometry" />
        </mxCell>
        <mxCell id="sC8eI6ADNs8tTRoIK7ok-56" value="" style="points=[[0.145,0.145,0],[0.5,0,0],[0.855,0.145,0],[1,0.5,0],[0.855,0.855,0],[0.5,1,0],[0.145,0.855,0],[0,0.5,0]];shape=mxgraph.bpmn.event;html=1;verticalLabelPosition=bottom;labelBackgroundColor=#ffffff;verticalAlign=top;align=center;perimeter=ellipsePerimeter;outlineConnect=0;aspect=fixed;outline=standard;symbol=general;" parent="sC8eI6ADNs8tTRoIK7ok-58" vertex="1">
          <mxGeometry x="80" y="143" width="50" height="50" as="geometry" />
        </mxCell>
        <mxCell id="sC8eI6ADNs8tTRoIK7ok-59" style="edgeStyle=orthogonalEdgeStyle;rounded=0;orthogonalLoop=1;jettySize=auto;html=1;entryX=0;entryY=0.5;entryDx=0;entryDy=0;entryPerimeter=0;" parent="sC8eI6ADNs8tTRoIK7ok-58" source="sC8eI6ADNs8tTRoIK7ok-56" target="sC8eI6ADNs8tTRoIK7ok-3" edge="1">
          <mxGeometry relative="1" as="geometry">
            <mxPoint x="200" y="123" as="targetPoint" />
          </mxGeometry>
        </mxCell>
        <mxCell id="sC8eI6ADNs8tTRoIK7ok-61" style="edgeStyle=orthogonalEdgeStyle;rounded=0;orthogonalLoop=1;jettySize=auto;html=1;entryX=0;entryY=0.5;entryDx=0;entryDy=0;entryPerimeter=0;exitX=1;exitY=0.5;exitDx=0;exitDy=0;exitPerimeter=0;" parent="sC8eI6ADNs8tTRoIK7ok-58" source="sC8eI6ADNs8tTRoIK7ok-84" target="sC8eI6ADNs8tTRoIK7ok-3" edge="1">
          <mxGeometry relative="1" as="geometry">
            <mxPoint x="129.99999199999877" y="75.51999999999998" as="sourcePoint" />
            <mxPoint x="200" y="123" as="targetPoint" />
          </mxGeometry>
        </mxCell>
        <mxCell id="sC8eI6ADNs8tTRoIK7ok-62" value="&lt;b&gt;Клиент не явился в течении 10 дней после деп. закрытия&lt;/b&gt;" style="text;html=1;align=center;verticalAlign=middle;whiteSpace=wrap;rounded=0;" parent="sC8eI6ADNs8tTRoIK7ok-58" vertex="1">
          <mxGeometry x="40" y="8" width="130" height="30" as="geometry" />
        </mxCell>
        <mxCell id="sC8eI6ADNs8tTRoIK7ok-57" value="&lt;b&gt;Клиент сообщил, что не явится в течении 10 дней после деп. закрытия&lt;/b&gt;" style="text;html=1;align=center;verticalAlign=middle;whiteSpace=wrap;rounded=0;" parent="sC8eI6ADNs8tTRoIK7ok-58" vertex="1">
          <mxGeometry x="20" y="200" width="170" height="30" as="geometry" />
        </mxCell>
        <mxCell id="sC8eI6ADNs8tTRoIK7ok-75" value="" style="group" parent="sC8eI6ADNs8tTRoIK7ok-58" connectable="0" vertex="1">
          <mxGeometry x="780" y="150" width="187.5" height="67.40000000000009" as="geometry" />
        </mxCell>
        <mxCell id="sC8eI6ADNs8tTRoIK7ok-76" value="&lt;font style=&quot;font-size: 11px;&quot;&gt;&lt;span style=&quot;color: rgba(0, 0, 0, 0.84); font-family: Roboto, Arial, sans-serif; background-color: rgb(255, 255, 255);&quot;&gt;Положение&amp;nbsp;&lt;/span&gt;&lt;span style=&quot;box-sizing: border-box; font-weight: bolder; color: rgba(0, 0, 0, 0.84); font-family: Roboto, Arial, sans-serif; background-color: rgb(255, 255, 255);&quot;&gt;«О требованиях к внутреннему аудиту коммерческих банков»&amp;nbsp;&lt;/span&gt;&lt;span style=&quot;color: rgba(0, 0, 0, 0.84); font-family: Roboto, Arial, sans-serif; background-color: rgb(255, 255, 255);&quot;&gt;(№ 3302, от 7 мая 2021 года) &lt;b&gt;Главы 1 и 2&lt;/b&gt; объясняют необходимость этого шага&lt;/span&gt;&lt;/font&gt;" style="text;html=1;align=left;verticalAlign=middle;whiteSpace=wrap;rounded=0;" parent="sC8eI6ADNs8tTRoIK7ok-75" vertex="1">
          <mxGeometry x="13.5" width="160" height="31.904761904761905" as="geometry" />
        </mxCell>
        <mxCell id="sC8eI6ADNs8tTRoIK7ok-77" value="" style="strokeWidth=2;html=1;shape=mxgraph.flowchart.annotation_1;align=left;pointerEvents=1;rotation=-90;" parent="sC8eI6ADNs8tTRoIK7ok-75" vertex="1">
          <mxGeometry x="60.25" y="-59.84999999999991" width="67" height="187.5" as="geometry" />
        </mxCell>
        <mxCell id="sC8eI6ADNs8tTRoIK7ok-84" value="" style="points=[[0.145,0.145,0],[0.5,0,0],[0.855,0.145,0],[1,0.5,0],[0.855,0.855,0],[0.5,1,0],[0.145,0.855,0],[0,0.5,0]];shape=mxgraph.bpmn.event;html=1;verticalLabelPosition=bottom;labelBackgroundColor=#ffffff;verticalAlign=top;align=center;perimeter=ellipsePerimeter;outlineConnect=0;aspect=fixed;outline=standard;symbol=general;" parent="sC8eI6ADNs8tTRoIK7ok-58" vertex="1">
          <mxGeometry x="80" y="50.5" width="50" height="50" as="geometry" />
        </mxCell>
        <mxCell id="sC8eI6ADNs8tTRoIK7ok-86" value="" style="points=[[0.145,0.145,0],[0.5,0,0],[0.855,0.145,0],[1,0.5,0],[0.855,0.855,0],[0.5,1,0],[0.145,0.855,0],[0,0.5,0]];shape=mxgraph.bpmn.event;html=1;verticalLabelPosition=bottom;labelBackgroundColor=#ffffff;verticalAlign=top;align=center;perimeter=ellipsePerimeter;outlineConnect=0;aspect=fixed;outline=standard;symbol=timer;" parent="sC8eI6ADNs8tTRoIK7ok-58" vertex="1">
          <mxGeometry x="110" y="46" width="24" height="24" as="geometry" />
        </mxCell>
        <mxCell id="sC8eI6ADNs8tTRoIK7ok-88" value="30с" style="text;html=1;align=center;verticalAlign=middle;whiteSpace=wrap;rounded=0;" parent="sC8eI6ADNs8tTRoIK7ok-58" vertex="1">
          <mxGeometry x="357" y="59.5" width="60" height="30" as="geometry" />
        </mxCell>
        <mxCell id="sC8eI6ADNs8tTRoIK7ok-89" value="30с" style="text;html=1;align=center;verticalAlign=middle;whiteSpace=wrap;rounded=0;" parent="sC8eI6ADNs8tTRoIK7ok-58" vertex="1">
          <mxGeometry x="513" y="58.5" width="60" height="30" as="geometry" />
        </mxCell>
        <mxCell id="sC8eI6ADNs8tTRoIK7ok-91" value="&lt;div style=&quot;&quot;&gt;&lt;span style=&quot;background-color: initial;&quot;&gt;&lt;b&gt;Итоговые затраты времени на полный цикл:&lt;/b&gt;&lt;/span&gt;&lt;/div&gt;&lt;div style=&quot;&quot;&gt;&lt;span style=&quot;background-color: initial;&quot;&gt;&lt;b&gt;&lt;br&gt;&lt;/b&gt;&lt;/span&gt;&lt;/div&gt;&lt;div&gt;Заочное закрытие депозита ФЛ - &lt;b&gt;от 1 минут до 3 минут&lt;/b&gt;&lt;/div&gt;&lt;div&gt;&lt;br&gt;&lt;/div&gt;" style="text;html=1;align=center;verticalAlign=middle;whiteSpace=wrap;rounded=0;fontSize=14;" parent="sC8eI6ADNs8tTRoIK7ok-58" vertex="1">
          <mxGeometry x="850" y="-7" width="500" height="90" as="geometry" />
        </mxCell>
        <mxCell id="sC8eI6ADNs8tTRoIK7ok-64" value="&lt;font style=&quot;font-size: 10px;&quot;&gt;Бухгалтер специалист по депозитам&lt;/font&gt;" style="swimlane;horizontal=0;whiteSpace=wrap;html=1;startSize=23;swimlaneFillColor=default;" parent="1" vertex="1">
          <mxGeometry x="20" y="570" width="1350" height="140" as="geometry" />
        </mxCell>
        <mxCell id="sC8eI6ADNs8tTRoIK7ok-47" value="Получение обновленного статуса проводки" style="points=[[0.25,0,0],[0.5,0,0],[0.75,0,0],[1,0.25,0],[1,0.5,0],[1,0.75,0],[0.75,1,0],[0.5,1,0],[0.25,1,0],[0,0.75,0],[0,0.5,0],[0,0.25,0]];shape=mxgraph.bpmn.task;whiteSpace=wrap;rectStyle=rounded;size=10;html=1;container=1;expand=0;collapsible=0;taskMarker=service;" parent="sC8eI6ADNs8tTRoIK7ok-64" vertex="1">
          <mxGeometry x="560" y="30.65" width="120" height="80" as="geometry" />
        </mxCell>
        <mxCell id="sC8eI6ADNs8tTRoIK7ok-48" value="4" style="text;whiteSpace=wrap;html=1;" parent="sC8eI6ADNs8tTRoIK7ok-47" vertex="1">
          <mxGeometry x="100" y="60" width="50" height="40" as="geometry" />
        </mxCell>
        <mxCell id="sC8eI6ADNs8tTRoIK7ok-50" value="Подтверждение операции Главным Бухгалтером" style="points=[[0.25,0,0],[0.5,0,0],[0.75,0,0],[1,0.25,0],[1,0.5,0],[1,0.75,0],[0.75,1,0],[0.5,1,0],[0.25,1,0],[0,0.75,0],[0,0.5,0],[0,0.25,0]];shape=mxgraph.bpmn.task;whiteSpace=wrap;rectStyle=rounded;size=10;html=1;container=1;expand=0;collapsible=0;taskMarker=user;" parent="sC8eI6ADNs8tTRoIK7ok-64" vertex="1">
          <mxGeometry x="720.25" y="30.65" width="120" height="80" as="geometry" />
        </mxCell>
        <mxCell id="sC8eI6ADNs8tTRoIK7ok-51" value="5" style="text;whiteSpace=wrap;html=1;" parent="sC8eI6ADNs8tTRoIK7ok-50" vertex="1">
          <mxGeometry x="100" y="60" width="50" height="40" as="geometry" />
        </mxCell>
        <mxCell id="sC8eI6ADNs8tTRoIK7ok-74" value="" style="points=[[0.145,0.145,0],[0.5,0,0],[0.855,0.145,0],[1,0.5,0],[0.855,0.855,0],[0.5,1,0],[0.145,0.855,0],[0,0.5,0]];shape=mxgraph.bpmn.event;html=1;verticalLabelPosition=bottom;labelBackgroundColor=#ffffff;verticalAlign=top;align=center;perimeter=ellipsePerimeter;outlineConnect=0;aspect=fixed;outline=standard;symbol=timer;" parent="sC8eI6ADNs8tTRoIK7ok-50" vertex="1">
          <mxGeometry x="100" y="-5" width="25" height="25" as="geometry" />
        </mxCell>
        <mxCell id="sC8eI6ADNs8tTRoIK7ok-52" style="edgeStyle=orthogonalEdgeStyle;rounded=0;orthogonalLoop=1;jettySize=auto;html=1;entryX=0;entryY=0.5;entryDx=0;entryDy=0;entryPerimeter=0;" parent="sC8eI6ADNs8tTRoIK7ok-64" source="sC8eI6ADNs8tTRoIK7ok-47" target="sC8eI6ADNs8tTRoIK7ok-50" edge="1">
          <mxGeometry relative="1" as="geometry" />
        </mxCell>
        <mxCell id="sC8eI6ADNs8tTRoIK7ok-90" value="В течении операционного дня" style="text;html=1;align=left;verticalAlign=middle;whiteSpace=wrap;rounded=0;" parent="sC8eI6ADNs8tTRoIK7ok-64" vertex="1">
          <mxGeometry x="850" y="15" width="60" height="30" as="geometry" />
        </mxCell>
        <mxCell id="sC8eI6ADNs8tTRoIK7ok-82" value="" style="strokeWidth=2;html=1;shape=mxgraph.flowchart.annotation_1;align=left;pointerEvents=1;rotation=-90;" parent="sC8eI6ADNs8tTRoIK7ok-64" vertex="1">
          <mxGeometry x="1083.12" width="67" height="183.75" as="geometry" />
        </mxCell>
        <mxCell id="sC8eI6ADNs8tTRoIK7ok-81" value="&lt;font style=&quot;font-size: 10px;&quot; face=&quot;Roboto, Arial, sans-serif&quot;&gt;&lt;b&gt;ОБ УТВЕРЖДЕНИИ ИНСТРУКЦИИ О ПОРЯДКЕ ОТКРЫТИЯ, ВЕДЕНИЯ И ЗАКРЫТИЯ БАНКОВСКИХ СЧЕТОВ&lt;/b&gt; [Зарегистрировано Министерством юстиции Республики Узбекистан 8 февраля 2023 года, реестр № 3420] Глава 1 пункт 4&lt;/font&gt;" style="text;html=1;align=left;verticalAlign=middle;whiteSpace=wrap;rounded=0;" parent="sC8eI6ADNs8tTRoIK7ok-64" vertex="1">
          <mxGeometry x="1030" y="48.769999999999996" width="173.25" height="31.9" as="geometry" />
        </mxCell>
        <mxCell id="sC8eI6ADNs8tTRoIK7ok-65" style="edgeStyle=orthogonalEdgeStyle;rounded=0;orthogonalLoop=1;jettySize=auto;html=1;entryX=0.5;entryY=0;entryDx=0;entryDy=0;entryPerimeter=0;" parent="1" source="sC8eI6ADNs8tTRoIK7ok-8" target="sC8eI6ADNs8tTRoIK7ok-47" edge="1">
          <mxGeometry relative="1" as="geometry" />
        </mxCell>
        <mxCell id="sC8eI6ADNs8tTRoIK7ok-66" value="Модуль совершенных операций по депозитам" style="swimlane;horizontal=0;whiteSpace=wrap;html=1;swimlaneFillColor=default;" parent="1" vertex="1">
          <mxGeometry x="20" y="710" width="1350" height="150" as="geometry" />
        </mxCell>
        <mxCell id="sC8eI6ADNs8tTRoIK7ok-41" value="Изменение статуса проводки на подтвержденную" style="points=[[0.25,0,0],[0.5,0,0],[0.75,0,0],[1,0.25,0],[1,0.5,0],[1,0.75,0],[0.75,1,0],[0.5,1,0],[0.25,1,0],[0,0.75,0],[0,0.5,0],[0,0.25,0]];shape=mxgraph.bpmn.task;whiteSpace=wrap;rectStyle=rounded;size=10;html=1;container=1;expand=0;collapsible=0;taskMarker=service;" parent="sC8eI6ADNs8tTRoIK7ok-66" vertex="1">
          <mxGeometry x="720.25" y="35" width="120" height="80" as="geometry" />
        </mxCell>
        <mxCell id="sC8eI6ADNs8tTRoIK7ok-42" value="6" style="text;whiteSpace=wrap;html=1;" parent="sC8eI6ADNs8tTRoIK7ok-41" vertex="1">
          <mxGeometry x="95" y="60" width="50" height="40" as="geometry" />
        </mxCell>
        <mxCell id="sC8eI6ADNs8tTRoIK7ok-39" value="&lt;font style=&quot;font-size: 10px;&quot;&gt;Сохранение статуса проводки, депозитный счет числится как неактивный&lt;/font&gt;" style="points=[[0.25,0,0],[0.5,0,0],[0.75,0,0],[1,0.25,0],[1,0.5,0],[1,0.75,0],[0.75,1,0],[0.5,1,0],[0.25,1,0],[0,0.75,0],[0,0.5,0],[0,0.25,0]];shape=mxgraph.bpmn.task;whiteSpace=wrap;rectStyle=rounded;size=10;html=1;container=1;expand=0;collapsible=0;taskMarker=service;" parent="sC8eI6ADNs8tTRoIK7ok-66" vertex="1">
          <mxGeometry x="880" y="35" width="120" height="80" as="geometry" />
        </mxCell>
        <mxCell id="sC8eI6ADNs8tTRoIK7ok-40" value="7" style="text;whiteSpace=wrap;html=1;" parent="sC8eI6ADNs8tTRoIK7ok-39" vertex="1">
          <mxGeometry x="100" y="55" width="50" height="40" as="geometry" />
        </mxCell>
        <mxCell id="sC8eI6ADNs8tTRoIK7ok-45" style="edgeStyle=orthogonalEdgeStyle;rounded=0;orthogonalLoop=1;jettySize=auto;html=1;entryX=0;entryY=0.5;entryDx=0;entryDy=0;entryPerimeter=0;" parent="sC8eI6ADNs8tTRoIK7ok-66" source="sC8eI6ADNs8tTRoIK7ok-41" target="sC8eI6ADNs8tTRoIK7ok-39" edge="1">
          <mxGeometry relative="1" as="geometry" />
        </mxCell>
        <mxCell id="sC8eI6ADNs8tTRoIK7ok-37" value="Отправка инфо-запроса в ** о закрытии счета" style="points=[[0.25,0,0],[0.5,0,0],[0.75,0,0],[1,0.25,0],[1,0.5,0],[1,0.75,0],[0.75,1,0],[0.5,1,0],[0.25,1,0],[0,0.75,0],[0,0.5,0],[0,0.25,0]];shape=mxgraph.bpmn.task;whiteSpace=wrap;rectStyle=rounded;size=10;html=1;container=1;expand=0;collapsible=0;taskMarker=service;" parent="sC8eI6ADNs8tTRoIK7ok-66" vertex="1">
          <mxGeometry x="1040" y="35" width="120" height="80" as="geometry" />
        </mxCell>
        <mxCell id="sC8eI6ADNs8tTRoIK7ok-38" value="8" style="text;whiteSpace=wrap;html=1;" parent="sC8eI6ADNs8tTRoIK7ok-37" vertex="1">
          <mxGeometry x="100" y="55" width="50" height="40" as="geometry" />
        </mxCell>
        <mxCell id="sC8eI6ADNs8tTRoIK7ok-69" value="" style="points=[[0.145,0.145,0],[0.5,0,0],[0.855,0.145,0],[1,0.5,0],[0.855,0.855,0],[0.5,1,0],[0.145,0.855,0],[0,0.5,0]];shape=mxgraph.bpmn.event;html=1;verticalLabelPosition=bottom;labelBackgroundColor=#ffffff;verticalAlign=top;align=center;perimeter=ellipsePerimeter;outlineConnect=0;aspect=fixed;outline=throwing;symbol=message;" parent="sC8eI6ADNs8tTRoIK7ok-37" vertex="1">
          <mxGeometry x="45" y="65" width="30" height="30" as="geometry" />
        </mxCell>
        <mxCell id="sC8eI6ADNs8tTRoIK7ok-46" style="edgeStyle=orthogonalEdgeStyle;rounded=0;orthogonalLoop=1;jettySize=auto;html=1;entryX=0;entryY=0.5;entryDx=0;entryDy=0;entryPerimeter=0;" parent="sC8eI6ADNs8tTRoIK7ok-66" source="sC8eI6ADNs8tTRoIK7ok-39" target="sC8eI6ADNs8tTRoIK7ok-37" edge="1">
          <mxGeometry relative="1" as="geometry" />
        </mxCell>
        <mxCell id="sC8eI6ADNs8tTRoIK7ok-43" value="" style="points=[[0.145,0.145,0],[0.5,0,0],[0.855,0.145,0],[1,0.5,0],[0.855,0.855,0],[0.5,1,0],[0.145,0.855,0],[0,0.5,0]];shape=mxgraph.bpmn.event;html=1;verticalLabelPosition=bottom;labelBackgroundColor=#ffffff;verticalAlign=top;align=center;perimeter=ellipsePerimeter;outlineConnect=0;aspect=fixed;outline=end;symbol=terminate2;" parent="sC8eI6ADNs8tTRoIK7ok-66" vertex="1">
          <mxGeometry x="1250" y="50" width="50" height="50" as="geometry" />
        </mxCell>
        <mxCell id="sC8eI6ADNs8tTRoIK7ok-44" style="edgeStyle=orthogonalEdgeStyle;rounded=0;orthogonalLoop=1;jettySize=auto;html=1;entryX=0;entryY=0.5;entryDx=0;entryDy=0;entryPerimeter=0;" parent="sC8eI6ADNs8tTRoIK7ok-66" source="sC8eI6ADNs8tTRoIK7ok-37" target="sC8eI6ADNs8tTRoIK7ok-43" edge="1">
          <mxGeometry relative="1" as="geometry" />
        </mxCell>
        <mxCell id="sC8eI6ADNs8tTRoIK7ok-36" value="&lt;font style=&quot;font-size: 10px;&quot;&gt;&lt;b&gt;Депозит закрыт&lt;/b&gt;&lt;/font&gt;" style="text;html=1;align=center;verticalAlign=middle;whiteSpace=wrap;rounded=0;" parent="sC8eI6ADNs8tTRoIK7ok-66" vertex="1">
          <mxGeometry x="1230" y="97" width="90" height="30" as="geometry" />
        </mxCell>
        <mxCell id="sC8eI6ADNs8tTRoIK7ok-67" style="edgeStyle=orthogonalEdgeStyle;rounded=0;orthogonalLoop=1;jettySize=auto;html=1;entryX=0.5;entryY=0;entryDx=0;entryDy=0;entryPerimeter=0;" parent="1" source="sC8eI6ADNs8tTRoIK7ok-50" target="sC8eI6ADNs8tTRoIK7ok-41" edge="1">
          <mxGeometry relative="1" as="geometry" />
        </mxCell>
        <mxCell id="sC8eI6ADNs8tTRoIK7ok-70" value="&lt;b&gt;**&lt;/b&gt;" style="html=1;whiteSpace=wrap;" parent="1" vertex="1">
          <mxGeometry x="925" y="910" width="390" height="50" as="geometry" />
        </mxCell>
        <mxCell id="sC8eI6ADNs8tTRoIK7ok-72" value="Банк АБС" style="swimlane;horizontal=0;whiteSpace=wrap;html=1;" parent="1" vertex="1">
          <mxGeometry y="330" width="20" height="530" as="geometry" />
        </mxCell>
        <mxCell id="sC8eI6ADNs8tTRoIK7ok-79" value="" style="endArrow=none;dashed=1;html=1;dashPattern=1 3;strokeWidth=2;rounded=0;entryX=0;entryY=0;entryDx=0;entryDy=0;entryPerimeter=0;exitX=0.486;exitY=0.003;exitDx=0;exitDy=0;exitPerimeter=0;" parent="1" source="sC8eI6ADNs8tTRoIK7ok-50" target="sC8eI6ADNs8tTRoIK7ok-77" edge="1">
          <mxGeometry width="50" height="50" relative="1" as="geometry">
            <mxPoint x="870" y="590.4" as="sourcePoint" />
            <mxPoint x="920" y="540.4" as="targetPoint" />
          </mxGeometry>
        </mxCell>
        <mxCell id="sC8eI6ADNs8tTRoIK7ok-83" value="" style="endArrow=none;dashed=1;html=1;dashPattern=1 3;strokeWidth=2;rounded=0;entryX=0.014;entryY=0.442;entryDx=0;entryDy=0;entryPerimeter=0;exitX=0.5;exitY=0;exitDx=0;exitDy=0;exitPerimeter=0;" parent="1" source="sC8eI6ADNs8tTRoIK7ok-37" target="sC8eI6ADNs8tTRoIK7ok-82" edge="1">
          <mxGeometry width="50" height="50" relative="1" as="geometry">
            <mxPoint x="1210" y="760" as="sourcePoint" />
            <mxPoint x="1272" y="700" as="targetPoint" />
          </mxGeometry>
        </mxCell>
        <mxCell id="sC8eI6ADNs8tTRoIK7ok-92" value="" style="points=[[0.145,0.145,0],[0.5,0,0],[0.855,0.145,0],[1,0.5,0],[0.855,0.855,0],[0.5,1,0],[0.145,0.855,0],[0,0.5,0]];shape=mxgraph.bpmn.event;html=1;verticalLabelPosition=bottom;labelBackgroundColor=#ffffff;verticalAlign=top;align=center;perimeter=ellipsePerimeter;outlineConnect=0;aspect=fixed;outline=catching;symbol=timer;" parent="1" vertex="1">
          <mxGeometry x="1300" y="280" width="120" height="120" as="geometry" />
        </mxCell>
        <mxCell id="U84YDQWYULIXlzDOaMx5-1" style="edgeStyle=orthogonalEdgeStyle;rounded=0;orthogonalLoop=1;jettySize=auto;html=1;entryX=0.5;entryY=0;entryDx=0;entryDy=0;dashed=1;" parent="1" source="sC8eI6ADNs8tTRoIK7ok-69" target="sC8eI6ADNs8tTRoIK7ok-70" edge="1">
          <mxGeometry relative="1" as="geometry" />
        </mxCell>
      </root>
    </mxGraphModel>
  </diagram>
</mxfile>
